<svg preserveAspectRatio="xMidYMid meet" data-bbox="18.942 7.063 313.058 69.337" viewBox="0 0 345.3 82.7" xmlns="http://www.w3.org/2000/svg" data-type="ugc" role="presentation" aria-hidden="true">
    <g>
        <path d="M119.2 53.4h-2.8v-.5c-.6.3-1.3.5-2.1.5-1.3 0-2.5-.5-3.4-1.4-.9-1-1.4-2.1-1.4-3.5V33.9c0-1.4.5-2.5 1.4-3.5.9-1 2.1-1.4 3.4-1.4 1.3 0 2.5.5 3.4 1.4 1 1 1.4 2.1 1.4 3.5V36h-2.8v-2.1c0-.6-.2-1.1-.6-1.5-.4-.4-.9-.6-1.5-.6s-1.1.2-1.5.6c-.4.4-.6.9-.6 1.5v14.6c0 .6.2 1.1.6 1.5.4.4.9.6 1.5.6s1.1-.2 1.5-.6c.4-.4.6-.9.6-1.5v-4.9h-2.1v-2.8h4.9v12.6h.1zm15.3-4.9c0 1.4-.5 2.5-1.4 3.5-.9 1-2.1 1.4-3.4 1.4s-2.5-.5-3.4-1.4c-1-1-1.4-2.1-1.4-3.5V29h2.8v19.5c0 .6.2 1.1.6 1.5.4.4.9.6 1.5.6s1.1-.2 1.5-.6c.4-.4.6-.9.6-1.5V29h2.8v19.5h-.2zm14 4.9h-8.4V29h8.4v2.8h-5.6v8h5.6v2.8h-5.6v8h5.6v2.8zm15.3 0H161v-8.7c0-.6-.2-1.1-.6-1.5-.4-.4-.9-.6-1.5-.6h-2.1v10.8H154V29h4.9c1.3 0 2.5.5 3.4 1.4 1 1 1.4 2.1 1.4 3.5v3.8c0 1.4-.5 2.5-1.4 3.5 1 1 1.4 2.1 1.4 3.5v8.7h.1zM161 37.7v-3.8c0-.6-.2-1.1-.6-1.5-.4-.4-.9-.6-1.5-.6h-2.1v8h2.1c.6 0 1.1-.2 1.5-.6.4-.4.6-.9.6-1.5zm18.2 15.7h-2.8v-8.7c0-.6-.2-1.1-.6-1.5s-.9-.6-1.5-.6h-2.1v10.8h-2.8V29h4.9c1.3 0 2.5.5 3.4 1.4 1 1 1.4 2.1 1.4 3.5v3.8c0 1.4-.5 2.5-1.4 3.5 1 1 1.4 2.1 1.4 3.5v8.7h.1zm-2.8-15.7v-3.8c0-.6-.2-1.1-.6-1.5-.4-.4-.9-.6-1.5-.6h-2.1v8h2.1c.6 0 1.1-.2 1.5-.6.4-.4.6-.9.6-1.5zm16.7 15.7h-8.4V29h8.4v2.8h-5.6v8h5.6v2.8h-5.6v8h5.6v2.8zm15.4 0h-2.8v-8.7c0-.6-.2-1.1-.6-1.5s-.9-.6-1.5-.6h-2.1v10.8h-2.8V29h4.9c1.3 0 2.5.5 3.4 1.4 1 1 1.4 2.1 1.4 3.5v3.8c0 1.4-.5 2.5-1.4 3.5 1 1 1.4 2.1 1.4 3.5v8.7h.1zm-2.8-15.7v-3.8c0-.6-.2-1.1-.6-1.5-.4-.4-.9-.6-1.5-.6h-2.1v8h2.1c.6 0 1.1-.2 1.5-.6.4-.4.6-.9.6-1.5zm18.1 10.8c0 1.4-.5 2.5-1.4 3.5-.9 1-2.1 1.4-3.4 1.4-1.3 0-2.5-.5-3.4-1.4-1-1-1.4-2.1-1.4-3.5V33.9c0-1.4.5-2.5 1.4-3.5.9-1 2.1-1.4 3.4-1.4 1.3 0 2.5.5 3.4 1.4 1 1 1.4 2.1 1.4 3.5v14.6zm-2.8 0V33.9c0-.6-.2-1.1-.6-1.5-.4-.4-.9-.6-1.5-.6s-1.1.2-1.5.6c-.4.4-.6.9-.6 1.5v14.6c0 .6.2 1.1.6 1.5.4.4.9.6 1.5.6s1.1-.2 1.5-.6c.4-.4.6-.9.6-1.5zm18.2 0c0 1.4-.5 2.5-1.4 3.5-.9 1-2.1 1.4-3.4 1.4s-2.5-.5-3.4-1.4c-1-1-1.4-2.1-1.4-3.5v-2.1h2.8v2.1c0 .6.2 1.1.6 1.5.4.4.9.6 1.5.6s1.1-.2 1.5-.6c.4-.4.6-.9.6-1.5v-2.1c0-1.6-.6-2.7-1.8-3.5-1.1-.6-2.2-1.3-3.3-1.9-1.2-1-1.8-2.6-1.8-4.7v-2.4c0-1.4.5-2.5 1.4-3.5.9-1 2.1-1.4 3.4-1.4s2.5.5 3.4 1.4c1 1 1.4 2.1 1.4 3.5V36h-2.8v-2.1c0-.6-.2-1.1-.6-1.5-.4-.4-.9-.6-1.5-.6s-1.1.2-1.5.6c-.4.4-.6.9-.6 1.5V36c0 1.6.6 2.7 1.8 3.5 1.1.6 2.2 1.3 3.3 1.9 1.2 1 1.8 2.6 1.8 4.7v2.4zm22.3 4.9h-2.9l-1-5.9h-4l-1 5.9h-2.9L254 29h3.2l4.3 24.4zm-4.4-8.7l-1.5-8.7-1.6 8.7h3.1zm17.6 8.7H265l5.9-21.6H265V29h9.8l-5.9 21.6h5.9v2.8h-.1zm15.4-4.9c0 1.4-.5 2.5-1.4 3.5-.9 1-2.1 1.4-3.4 1.4s-2.5-.5-3.4-1.4c-1-1-1.4-2.1-1.4-3.5V29h2.8v19.5c0 .6.2 1.1.6 1.5.4.4.9.6 1.5.6s1.1-.2 1.5-.6c.4-.4.6-.9.6-1.5V29h2.8v19.5h-.2zm13.9 4.9h-8.4V29h2.8v21.6h5.6v2.8zm12.6 0h-8.4V29h8.4v2.8H311v8h5.6v2.8H311v8h5.6v2.8zm15.3-4.9c0 1.4-.5 2.5-1.4 3.5-.9 1-2.1 1.4-3.4 1.4-1.3 0-2.5-.5-3.4-1.4-1-1-1.4-2.1-1.4-3.5v-2.1h2.8v2.1c0 .6.2 1.1.6 1.5.4.4.9.6 1.5.6s1.1-.2 1.5-.6c.4-.4.6-.9.6-1.5v-2.1c0-1.6-.6-2.7-1.8-3.5-1.1-.6-2.2-1.3-3.3-1.9-1.2-1-1.8-2.6-1.8-4.7v-2.4c0-1.4.5-2.5 1.4-3.5.9-1 2.1-1.4 3.4-1.4 1.3 0 2.5.5 3.4 1.4 1 1 1.4 2.1 1.4 3.5V36h-2.8v-2.1c0-.6-.2-1.1-.6-1.5-.4-.4-.9-.6-1.5-.6s-1.1.2-1.5.6c-.4.4-.6.9-.6 1.5V36c0 1.6.6 2.7 1.8 3.5 1.1.6 2.2 1.3 3.3 1.9 1.2 1 1.8 2.6 1.8 4.7v2.4z" fill-rule="evenodd" clip-rule="evenodd" fill="#74acd6"></path>
        <path stroke="#9b9b9b" stroke-width=".75" stroke-miterlimit="10" d="M101.3 16.7v50"></path>
        <path d="M37.2 57.4l20.1 19c3.1-2 31.2-29.2 33.8-32.7 7.3-9.9 5.9-23-2.7-30.7-8-7.2-19.9-7.8-28.3-1.8l-2.6 2.1-.1.1c-1.5-.9-2.7-2.8-7.2-4.6-22.7-9-43.8 18.9-22.3 39.4l5.4-5.5C18.2 27.7 32.6 10.2 47 16c5.1 2 7.3 6.6 10.3 8.3 2.5-1.6 5.2-6.3 10.5-8.4 15.2-6 26 11.8 17 23.3L57.3 65.6 42.9 51.9l-5.7 5.5z" fill-rule="evenodd" clip-rule="evenodd" fill="#74acd6"></path>
        <path d="M53.5 41c-.5-.1-1.6-1-1.7-1.5-.3-1.1 5-3.7 5.2-3.8-.2.9 0 .2-.4 1-.6 1.1-2.4 3.9-3.1 4.3zm-34 30.3v2.1h2.1c.3-.6 1.4-1.5 2-2 1.4-1.5.8-1 3.1-1.1.3-.5.5-.5.6-1 .1-.6-.1-.9 0-1.5 2.1-.2 3.2.3 2.4-2.4 8.7-9-2.1 2.3 6.7-6.6 1 0 1.8.3 2.4-.4.7-.8.1-1.1.1-2.2 1-.2 1.7.2 2.4-.4.7-.6.2-1.3.3-2.3h2.2c.4-.7.6-.6.5-1.5-.1-.9 6.5-8 7-8.3 1.2.3 2.2 2.6 3.8.3 2.2-3.6 7.1-9.3 7.1-13.4-4.9 0-9.3 4.3-13.4 7.1-.7.4-1.1.9-.9 1.8.1.3.3.6.5.9.2.2.5.4.7 1-1.1 2-4.8 5.4-6.8 7.4-2.9 0-2.4-.1-2.7 2.7-.5 0-2.2-.7-2.5.8-.2.7.2 1.4-.2 1.8-.4.4-1.8-.6-2.4.5-.1 1.7.4 1.7-.7 2.7-8.6 8.6 2.7-2.9-5.9 5.8-3.1 0-2.5 0-2.7 2.7-1.7.1-1.2-.5-2.6.6-.3 3.1.7 1-2 4-.5.4-.4.6-1.1.9z" fill-rule="evenodd" clip-rule="evenodd" fill="#74acd6"></path>
        <path d="M46.2 49.1l.3.3c0 .2.2.1.3 1 .1.4.1.7.1 1 .1 1.2.1 2.4.1 3.6 0 .3-.1 1.3 0 1.5.1.8.5.8.6.8L43 61.6l-.6.5c-.3-.2-1.1-.7-1.4-.8-1-.4-2-1-2.8-1.7-.2-.2-.5-.4-.7-.6l-.7-.7-.7-.8c0-.1-.8-1-.9-1.1-.4-.4-.5-.7-.6-1.1-.1-.6.1-1.1.4-1.6.1-.2.3-.4.3-.5 0-.1-.7-1.4.5-2.2.1-.1.2-.2.4-.2.1 0 .3-.1.4-.1 0-.3-.2-.4-.1-.9 0-.5.3-.7.3-.8l.3-.3.4-.2c.3-.1.4-.1.7-.2.1 0 .1-.1.2-.2.3-.4.7-.9 1.2-1.1 1-.4 1.8.1 2.5.7.3.3.6.5.8.8.3.3.5.6.8.9l-.2-.4c-.1-.4.3-.6.6-.6.5-.1 1.2.1 1.7.3.1.2.3.4.4.4z" fill-rule="evenodd" clip-rule="evenodd" fill="#74acd6"></path>
    </g>
</svg>